# xmcd
#
# Track frame offsets:
#	150
#	21312
#	45891
#	66035
#	92352
#	113642
#	137063
#	157008
#	183047
#	203560
#
# Disc length: 2958 seconds
#
# Revision: 1
# Processed by: cddbd v1.5.2PL0 Copyright (c) Steve Scherf et al.
# Submitted via: EZCDAudioConverter 8.0.2.1
#
DISCID=730b8c0a
DTITLE=Various Artist - st. Xuân Tiên. Khúc Hát Ân Tình
DYEAR=2006
DGENRE=Pop
TTITLE0=Như Quỳnh, Hà Phương, Minh Tuyết, Hạ Vy - Khúc Hát Ân Tình
TTITLE1=Như Quỳnh - Chờ anh bên đồi
TTITLE2=Trần Thái Hòa - Chờ một kiếp mai
TTITLE3=Hoàng Oanh - Mong chờ
TTITLE4=Trần Thái Hòa, Quang Lê, Thế Sơn - Về dưới mái nhà
TTITLE5=Ý Lan - Duyên tình
TTITLE6=Thế Sơn - Hận Đồ Bàn
TTITLE7=Ngọc Liên - Những người tôi thương
TTITLE8=Trần Thái Hòa and Thế Sơn - Đường lên non
TTITLE9=Hợp Ca - Hận Đồ Bàn, Không 1, Non nước hữu tình
EXTD=
EXTT0=
EXTT1=
EXTT2=
EXTT3=
EXTT4=
EXTT5=
EXTT6=
EXTT7=
EXTT8=
EXTT9=
PLAYORDER=
